HIERARCHY
ROOT Hip
{
	OFFSET 0.782599 -1.294198 0.116606
	CHANNELS 6 Xposition Yposition Zposition Xrotation Yrotation Zrotation
	JOINT LowerSpine
	{
		OFFSET -0.020335 0.153349 0.259874
		CHANNELS 6 Xposition Yposition Zposition Xrotation Yrotation Zrotation
		JOINT MiddleSpine
		{
			OFFSET 0.001466 -0.011056 0.237154
			CHANNELS 3 Xrotation Yrotation Zrotation
			JOINT Chest
			{
				OFFSET -0.007728 0.058276 0.293449
				CHANNELS 3 Xrotation Yrotation Zrotation
				JOINT Neck
				{
					OFFSET -0.001627 0.012268 0.661279
					CHANNELS 6 Xposition Yposition Zposition Xrotation Yrotation Zrotation
					JOINT Head
					{
						OFFSET 0.013350 -0.100692 0.373434
						CHANNELS 3 Xrotation Yrotation Zrotation
						End Site
						{
							OFFSET 0.000211 -0.001587 0.053629
						}
					}
				}
				JOINT LClavicle
				{
					OFFSET 0.085431 -0.187170 0.638168
					CHANNELS 6 Xposition Yposition Zposition Xrotation Yrotation Zrotation
					JOINT LShoulder
					{
						OFFSET 0.328511 0.192973 0.091535
						CHANNELS 3 Xrotation Yrotation Zrotation
						JOINT LForearm
						{
							OFFSET 0.820367 0.116027 -0.002937
							CHANNELS 3 Xrotation Yrotation Zrotation
							JOINT LHand
							{
								OFFSET 0.684601 0.094959 0.002005
								CHANNELS 3 Xrotation Yrotation Zrotation
								JOINT LFinger1
								{
									OFFSET 0.275323 -0.038541 0.023427
									CHANNELS 6 Xposition Yposition Zposition Xrotation Yrotation Zrotation
									JOINT LFinger11
									{
										OFFSET 0.101646 -0.004329 -0.024433
										CHANNELS 3 Xrotation Yrotation Zrotation
										JOINT LFinger12
										{
											OFFSET 0.069393 -0.002960 -0.016682
											CHANNELS 3 Xrotation Yrotation Zrotation
											End Site
											{
												OFFSET 0.051444 -0.001491 -0.015164
											}
										}
									}
								}
								JOINT LFinger2
								{
									OFFSET 0.270358 0.029318 0.027053
									CHANNELS 6 Xposition Yposition Zposition Xrotation Yrotation Zrotation
									JOINT LFinger21
									{
										OFFSET 0.122715 0.017010 0.000344
										CHANNELS 3 Xrotation Yrotation Zrotation
										JOINT LFinger22
										{
											OFFSET 0.068019 0.009440 0.000210
											CHANNELS 3 Xrotation Yrotation Zrotation
											End Site
											{
												OFFSET 0.053064 0.006963 -0.003780
											}
										}
									}
								}
								JOINT LFinger3
								{
									OFFSET 0.247401 0.094297 0.018054
									CHANNELS 6 Xposition Yposition Zposition Xrotation Yrotation Zrotation
									JOINT LFinger31
									{
										OFFSET 0.110514 0.021755 -0.005692
										CHANNELS 3 Xrotation Yrotation Zrotation
										JOINT LFinger32
										{
											OFFSET 0.062973 0.012409 -0.003223
											CHANNELS 3 Xrotation Yrotation Zrotation
											End Site
											{
												OFFSET 0.052401 0.009485 -0.006540
											}
										}
									}
								}
								JOINT LFinger4
								{
									OFFSET 0.223176 0.135785 -0.018169
									CHANNELS 6 Xposition Yposition Zposition Xrotation Yrotation Zrotation
									JOINT LFinger41
									{
										OFFSET 0.066037 0.028012 -0.014420
										CHANNELS 3 Xrotation Yrotation Zrotation
										JOINT LFinger42
										{
											OFFSET 0.048424 0.020549 -0.010559
											CHANNELS 3 Xrotation Yrotation Zrotation
											End Site
											{
												OFFSET 0.048552 0.018130 -0.013879
											}
										}
									}
								}
								JOINT LFinger0
								{
									OFFSET 0.060453 -0.034360 -0.041942
									CHANNELS 6 Xposition Yposition Zposition Xrotation Yrotation Zrotation
									JOINT LFinger01
									{
										OFFSET 0.112498 -0.063547 -0.033880
										CHANNELS 3 Xrotation Yrotation Zrotation
										JOINT LFinger02
										{
											OFFSET 0.073778 -0.039589 -0.024310
											CHANNELS 3 Xrotation Yrotation Zrotation
											End Site
											{
												OFFSET 0.046048 -0.023308 -0.014659
											}
										}
									}
								}
							}
						}
					}
				}
				JOINT RClavicle
				{
					OFFSET -0.033697 -0.202967 0.638168
					CHANNELS 6 Xposition Yposition Zposition Xrotation Yrotation Zrotation
					JOINT RShoulder
					{
						OFFSET -0.367516 0.100702 0.091552
						CHANNELS 3 Xrotation Yrotation Zrotation
						JOINT RForearm
						{
							OFFSET -0.822255 -0.101793 -0.002938
							CHANNELS 3 Xrotation Yrotation Zrotation
							JOINT RHand
							{
								OFFSET -0.685690 -0.086748 0.002005
								CHANNELS 3 Xrotation Yrotation Zrotation
								JOINT RFinger1
								{
									OFFSET -0.255766 -0.108965 0.023430
									CHANNELS 6 Xposition Yposition Zposition Xrotation Yrotation Zrotation
									JOINT RFinger11
									{
										OFFSET -0.097005 -0.030672 -0.024433
										CHANNELS 3 Xrotation Yrotation Zrotation
										JOINT RFinger12
										{
											OFFSET -0.066223 -0.020944 -0.016688
											CHANNELS 3 Xrotation Yrotation Zrotation
											End Site
											{
												OFFSET -0.049277 -0.014848 -0.015164
											}
										}
									}
								}
								JOINT RFinger2
								{
									OFFSET -0.268655 -0.042161 0.027054
									CHANNELS 6 Xposition Yposition Zposition Xrotation Yrotation Zrotation
									JOINT RFinger21
									{
										OFFSET -0.122907 -0.015561 0.000347
										CHANNELS 3 Xrotation Yrotation Zrotation
										JOINT RFinger22
										{
											OFFSET -0.068129 -0.008611 0.000210
											CHANNELS 3 Xrotation Yrotation Zrotation
											End Site
											{
												OFFSET -0.053045 -0.007108 -0.003780
											}
										}
									}
								}
								JOINT RFinger3
								{
									OFFSET -0.263427 0.026558 0.018057
									CHANNELS 6 Xposition Yposition Zposition Xrotation Yrotation Zrotation
									JOINT RFinger31
									{
										OFFSET -0.112364 -0.007799 -0.005692
										CHANNELS 3 Xrotation Yrotation Zrotation
										JOINT RFinger32
										{
											OFFSET -0.064034 -0.004432 -0.003223
											CHANNELS 3 Xrotation Yrotation Zrotation
											End Site
											{
												OFFSET -0.053062 -0.004500 -0.006540
											}
										}
									}
								}
								JOINT RFinger4
								{
									OFFSET -0.250852 0.072926 -0.018169
									CHANNELS 6 Xposition Yposition Zposition Xrotation Yrotation Zrotation
									JOINT RFinger41
									{
										OFFSET -0.071055 0.009832 -0.014420
										CHANNELS 3 Xrotation Yrotation Zrotation
										JOINT RFinger42
										{
											OFFSET -0.052106 0.007219 -0.010556
											CHANNELS 3 Xrotation Yrotation Zrotation
											End Site
											{
												OFFSET -0.051599 0.004850 -0.013879
											}
										}
									}
								}
								JOINT RFinger0
								{
									OFFSET -0.049409 -0.048925 -0.041938
									CHANNELS 6 Xposition Yposition Zposition Xrotation Yrotation Zrotation
									JOINT RFinger01
									{
										OFFSET -0.092048 -0.090674 -0.033886
										CHANNELS 3 Xrotation Yrotation Zrotation
										JOINT RFinger02
										{
											OFFSET -0.060910 -0.057450 -0.024307
											CHANNELS 3 Xrotation Yrotation Zrotation
											End Site
											{
												OFFSET -0.038382 -0.034504 -0.014660
											}
										}
									}
								}
							}
						}
					}
				}
			}
		}
	}
	JOINT RThigh
	{
		OFFSET -0.307908 -0.015404 0.117468
		CHANNELS 6 Xposition Yposition Zposition Xrotation Yrotation Zrotation
		JOINT RShin
		{
			OFFSET -0.022053 -0.002924 -1.209169
			CHANNELS 3 Xrotation Yrotation Zrotation
			JOINT RFoot
			{
				OFFSET -0.000000 0.000000 -1.187331
				CHANNELS 3 Xrotation Yrotation Zrotation
				JOINT RToe
				{
					OFFSET 0.035872 -0.270520 -0.130497
					CHANNELS 3 Xrotation Yrotation Zrotation
					End Site
					{
						OFFSET 0.007053 -0.053187 0.000000
					}
				}
			}
		}
	}
	JOINT LThigh
	{
		OFFSET 0.301278 0.065377 0.117477
		CHANNELS 6 Xposition Yposition Zposition Xrotation Yrotation Zrotation
		JOINT LShin
		{
			OFFSET 0.022053 0.002924 -1.209177
			CHANNELS 3 Xrotation Yrotation Zrotation
			JOINT LFoot
			{
				OFFSET -0.000000 0.000000 -1.187332
				CHANNELS 3 Xrotation Yrotation Zrotation
				JOINT LToe
				{
					OFFSET 0.035873 -0.270523 -0.130500
					CHANNELS 3 Xrotation Yrotation Zrotation
					End Site
					{
						OFFSET 0.007053 -0.053187 0.000000
					}
				}
			}
		}
	}
}
MOTION
Frames: 4
Frame Time: 0.041667
0.116568 1.623435 1.989192 10.731819 -19.782125 309.658483 -0.020335 0.153349 0.259874 -0.000007 -0.000004 0.000010 -4.080943 -0.527705 4.133055 -13.569312 0.252052 13.709343 -0.001627 0.012268 0.661279 -10.255645 -0.506967 0.191693 -2.440318 -0.959617 -0.039242 0.085431 -0.187170 0.638168 0.819998 -6.159775 0.044132 5.233158 -9.396330 -6.119271 -0.003623 -0.000200 1.380309 -0.000017 -0.000039 -0.000021 0.275323 -0.038541 0.023427 -0.000006 -0.000004 -0.000002 0.000004 -0.000000 0.000004 0.000007 0.000007 0.000004 0.270358 0.029318 0.027053 -0.000002 -0.000006 -0.000000 0.000002 0.000005 0.000007 0.000007 -0.000001 -0.000003 0.247401 0.094296 0.018054 -0.000007 -0.000007 -0.000001 -0.000003 0.000015 0.000002 -0.000002 -0.000006 -0.000001 0.223176 0.135784 -0.018169 -0.000006 -0.000002 0.000008 0.000005 -0.000004 -0.000007 -0.000010 -0.000002 0.000001 0.060453 -0.034359 -0.041942 -0.000005 -0.000009 0.000012 0.000015 0.000019 0.000003 -0.000016 -0.000013 -0.000010 -0.033696 -0.202967 0.638168 1.546566 -11.504503 0.155804 43.196801 -48.842198 18.702494 0.016294 0.002460 8.008742 0.000001 0.000001 -0.000001 -0.255766 -0.108966 0.023431 -0.000000 0.000004 0.000003 -0.000002 0.000000 -0.000004 0.000003 0.000003 -0.000006 -0.268655 -0.042161 0.027054 -0.000002 0.000005 0.000004 0.000001 0.000004 -0.000005 -0.000003 0.000011 0.000010 -0.263428 0.026558 0.018058 -0.000003 0.000012 0.000002 -0.000004 0.000009 -0.000001 0.000005 -0.000002 0.000001 -0.250852 0.072926 -0.018169 -0.000002 0.000005 0.000004 0.000003 -0.000007 -0.000004 -0.000011 -0.000014 -0.000009 -0.049409 -0.048925 -0.041938 -0.000001 0.000002 0.000003 0.000004 -0.000010 0.000005 0.000008 -0.000005 0.000018 -0.314430 0.067253 0.329979 -50.136778 8.171920 -28.603133 56.072260 6.278866 -3.346005 -5.858599 2.038076 -5.212806 -12.859234 -1.690456 -0.190524 0.265298 0.013351 0.192502 -45.559814 -29.239142 -11.930253 22.369228 2.889037 -0.571348 4.196540 1.544818 -2.302764 -0.169089 -0.022417 -0.000041 
0.128972 1.584892 1.943703 11.700183 -19.510280 311.782535 -0.020335 0.153349 0.259873 -0.000006 -0.000002 0.000015 -4.047063 -0.366633 4.167726 -13.349473 0.902958 13.868720 -0.001627 0.012269 0.661279 -10.503236 -0.475205 0.211667 -2.415503 -0.981160 -0.039993 0.085431 -0.187170 0.638167 0.687798 -5.172597 0.031086 5.769744 -6.860010 -5.726266 -0.004474 -0.000396 1.579149 -0.000019 -0.000037 -0.000025 0.275323 -0.038541 0.023427 -0.000006 -0.000003 -0.000004 0.000007 -0.000004 0.000002 0.000008 0.000004 0.000005 0.270358 0.029318 0.027053 -0.000004 -0.000004 -0.000003 0.000001 0.000004 0.000001 0.000007 -0.000000 -0.000006 0.247401 0.094296 0.018054 -0.000007 -0.000004 -0.000002 -0.000002 0.000015 0.000004 -0.000004 -0.000003 -0.000004 0.223177 0.135784 -0.018169 -0.000001 0.000001 0.000009 0.000001 -0.000003 -0.000004 -0.000009 -0.000000 0.000000 0.060453 -0.034360 -0.041942 -0.000003 -0.000008 0.000009 0.000011 0.000020 0.000011 -0.000010 -0.000016 -0.000012 -0.033697 -0.202967 0.638167 1.542605 -11.475786 0.155007 44.123019 -48.312759 20.843518 0.015972 0.001811 7.682875 0.000002 0.000001 -0.000001 -0.255766 -0.108966 0.023431 -0.000003 0.000002 0.000007 -0.000000 0.000000 -0.000005 0.000003 0.000003 -0.000004 -0.268655 -0.042161 0.027054 -0.000002 0.000002 0.000005 0.000001 0.000005 -0.000007 -0.000004 0.000012 0.000007 -0.263428 0.026557 0.018058 -0.000003 0.000010 0.000004 -0.000003 0.000009 -0.000002 0.000007 -0.000002 0.000001 -0.250852 0.072926 -0.018169 0.000001 0.000004 0.000008 0.000005 -0.000009 -0.000003 -0.000009 -0.000016 -0.000009 -0.049409 -0.048925 -0.041938 -0.000005 -0.000004 0.000008 0.000003 -0.000007 0.000001 0.000003 -0.000006 0.000017 -0.313996 0.068149 0.331911 -51.787997 10.155376 -28.900798 60.229585 6.566065 -3.811241 -8.354661 1.925249 -5.355095 -12.514234 -1.645863 -0.180481 0.265023 0.011367 0.188158 -48.494210 -28.856484 -13.204817 25.494233 3.266656 -0.739181 6.672582 2.117929 -3.057090 -1.117645 -0.148193 -0.001449 
0.148951 1.544225 1.899632 12.594981 -19.525957 313.566854 -0.020335 0.153349 0.259874 -0.000008 -0.000003 0.000009 -4.007911 -0.204315 4.200183 -13.158474 1.382351 14.016180 -0.001627 0.012268 0.661279 -10.753204 -0.361253 0.262544 -2.389544 -1.002302 -0.040834 0.085431 -0.187170 0.638168 0.528163 -3.976613 0.018345 6.341585 -4.039314 -5.035426 -0.005167 -0.000321 1.680749 -0.000018 -0.000035 -0.000017 0.275323 -0.038541 0.023428 -0.000005 -0.000005 -0.000006 0.000006 0.000002 0.000007 0.000005 0.000005 -0.000001 0.270358 0.029318 0.027053 -0.000003 -0.000008 0.000001 0.000004 0.000005 0.000001 0.000008 -0.000001 -0.000003 0.247401 0.094296 0.018054 -0.000005 -0.000009 -0.000002 -0.000004 0.000016 0.000009 -0.000004 -0.000001 -0.000005 0.223176 0.135784 -0.018169 -0.000002 -0.000002 0.000006 0.000001 -0.000003 -0.000007 -0.000012 -0.000002 0.000003 0.060453 -0.034360 -0.041942 -0.000005 -0.000009 0.000013 0.000011 0.000016 0.000008 -0.000012 -0.000017 -0.000013 -0.033697 -0.202966 0.638168 1.535787 -11.426459 0.153664 44.509061 -47.539797 22.527545 0.016725 0.001834 7.862232 0.000002 -0.000000 0.000000 -0.255766 -0.108966 0.023431 -0.000001 0.000003 0.000005 0.000000 -0.000001 -0.000004 0.000003 0.000002 -0.000006 -0.268655 -0.042160 0.027054 -0.000001 0.000004 0.000005 0.000001 0.000004 -0.000004 -0.000004 0.000010 0.000010 -0.263428 0.026558 0.018058 -0.000003 0.000012 0.000004 -0.000003 0.000009 -0.000000 0.000006 -0.000002 0.000003 -0.250852 0.072927 -0.018169 0.000001 0.000006 0.000007 0.000006 -0.000008 -0.000001 -0.000007 -0.000016 -0.000007 -0.049409 -0.048925 -0.041938 -0.000003 0.000001 0.000003 0.000007 -0.000006 0.000005 0.000007 -0.000006 0.000021 -0.313562 0.068803 0.333285 -53.644920 12.439588 -29.057998 64.187550 6.807410 -4.272290 -10.338529 1.576438 -5.037775 -12.376300 -1.628017 -0.176539 0.264759 0.009458 0.183979 -51.767206 -28.003528 -15.240683 28.960122 3.673760 -0.949032 9.513046 2.794713 -4.155981 -3.281828 -0.434941 -0.012464 
0.173287 1.505774 1.863719 13.441791 -19.642465 315.072965 -0.020335 0.153349 0.259874 -0.000005 -0.000004 0.000012 -3.964638 -0.042061 4.230622 -12.987912 1.724943 14.159549 -0.001627 0.012269 0.661279 -10.981070 -0.270885 0.304454 -2.370217 -1.017788 -0.041398 0.085431 -0.187170 0.638168 0.322636 -2.431634 0.006857 6.837020 -1.266937 -4.191796 -0.005371 -0.000753 1.621278 -0.000018 -0.000036 -0.000016 0.275323 -0.038541 0.023428 -0.000006 -0.000004 -0.000006 0.000010 -0.000000 0.000004 0.000006 0.000007 0.000008 0.270358 0.029318 0.027054 -0.000003 -0.000005 -0.000002 0.000002 0.000006 0.000005 0.000009 -0.000001 -0.000003 0.247401 0.094297 0.018055 -0.000006 -0.000007 -0.000001 -0.000004 0.000015 0.000007 -0.000005 -0.000003 -0.000002 0.223176 0.135784 -0.018169 -0.000003 -0.000000 0.000006 0.000003 -0.000003 -0.000008 -0.000012 -0.000002 0.000004 0.060454 -0.034360 -0.041941 -0.000000 -0.000011 0.000010 0.000016 0.000018 0.000005 -0.000017 -0.000010 -0.000017 -0.033697 -0.202966 0.638167 1.527117 -11.363653 0.151937 44.638906 -46.622636 24.060736 0.018209 0.003001 8.422169 0.000001 -0.000000 0.000001 -0.255766 -0.108967 0.023431 -0.000002 0.000005 0.000002 -0.000001 0.000001 -0.000005 0.000003 0.000002 -0.000008 -0.268655 -0.042161 0.027054 -0.000002 0.000006 0.000001 0.000001 0.000004 -0.000004 -0.000004 0.000010 0.000008 -0.263427 0.026557 0.018058 -0.000003 0.000012 0.000001 -0.000004 0.000010 -0.000003 0.000006 -0.000001 0.000002 -0.250852 0.072926 -0.018169 0.000001 0.000004 0.000001 0.000006 -0.000009 -0.000004 -0.000009 -0.000018 -0.000004 -0.049409 -0.048925 -0.041938 -0.000001 0.000001 -0.000003 0.000012 -0.000003 0.000004 0.000003 -0.000004 0.000019 -0.313131 0.069217 0.334104 -55.351542 14.645360 -29.089161 67.378566 6.978456 -4.655357 -11.400275 1.241654 -4.645095 -12.617103 -1.659167 -0.183445 0.264510 0.007659 0.180039 -55.308826 -26.698170 -17.680477 32.992296 4.129977 -1.223530 11.058974 3.289359 -5.179596 -5.737023 -0.759441 -0.038063 
